<?xml version="1.0" standalone="no"?>
<svg viewBox="0 0 200 200" xmlns="http://www.w3.org/2000/svg">
  <path fill="#E8C4B8" d="M40.7,-56.3C55,-54.2,70.3,-46.7,76.4,-34.5C82.5,-22.4,79.3,-5.7,71.2,6.1C63.2,18,50.1,25.1,41.5,37.2C32.9,49.3,28.8,66.5,18.3,75.8C7.8,85.1,-9,86.4,-17.7,76.5C-26.4,66.5,-27,45.2,-31.9,31.9C-36.8,18.6,-46,13.3,-54.2,3.4C-62.4,-6.4,-69.5,-20.7,-66.3,-31.3C-63,-41.9,-49.4,-48.8,-36.6,-51.5C-23.8,-54.3,-11.9,-53,0.7,-54C13.2,-55,26.4,-58.4,40.7,-56.3Z" transform="translate(100 100)" />
</svg>
