<?xml version="1.0" standalone="no"?>
<svg viewBox="0 0 200 200" xmlns="http://www.w3.org/2000/svg">
  <path fill="#E8C4B8" d="M42.2,-78C52,-67.4,55.4,-50.7,63.3,-36.6C71.3,-22.6,83.9,-11.3,88.5,2.6C93.1,16.6,89.6,33.2,79.2,42.9C68.7,52.7,51.2,55.6,36.9,59.1C22.5,62.6,11.3,66.8,-0.4,67.5C-12.1,68.2,-24.2,65.5,-35.3,60.1C-46.4,54.7,-56.6,46.6,-63.7,36.2C-70.8,25.7,-74.9,12.9,-75.2,-0.2C-75.6,-13.3,-72.2,-26.5,-64.4,-35.7C-56.5,-44.9,-44.2,-50,-32.7,-59.7C-21.2,-69.3,-10.6,-83.5,2.8,-88.3C16.2,-93.1,32.4,-88.7,42.2,-78Z" transform="translate(100 100)" />
</svg>
